# Blender 3.3.0
# www.blender.org
mtllib Specimen Jar #1.mtl
o Jar_Low
v 0.000000 0.251500 -0.114400
v 0.043779 0.251500 -0.105692
v 0.080893 0.251500 -0.080893
v 0.105692 0.251500 -0.043779
v 0.114400 0.251500 0.000000
v 0.105692 0.251500 0.043779
v 0.080893 0.251500 0.080893
v 0.043779 0.251500 0.105692
v 0.000000 0.251500 0.114400
v -0.043779 0.251500 0.105692
v -0.080893 0.251500 0.080893
v -0.105692 0.251500 0.043779
v -0.114400 0.251500 0.000000
v -0.105692 0.251500 -0.043779
v -0.080893 0.251500 -0.080893
v -0.043779 0.251500 -0.105692
v 0.000000 0.251500 -0.114400
v 0.043779 0.251500 -0.105692
v 0.080893 0.251500 -0.080893
v 0.105692 0.251500 -0.043779
v 0.114400 0.251500 0.000000
v 0.105692 0.251500 0.043779
v 0.080893 0.251500 0.080893
v 0.043779 0.251500 0.105692
v 0.000000 0.251500 0.114400
v -0.043779 0.251500 0.105692
v -0.080893 0.251500 0.080893
v -0.105692 0.251500 0.043779
v -0.114400 0.251500 0.000000
v -0.105692 0.251500 -0.043779
v -0.080893 0.251500 -0.080893
v -0.043779 0.251500 -0.105692
v 0.000000 0.333618 -0.100312
v 0.038388 0.333618 -0.092676
v 0.070931 0.333618 -0.070931
v 0.092676 0.333618 -0.038388
v 0.100312 0.333618 -0.000000
v 0.092676 0.333618 0.038388
v 0.070931 0.333618 0.070931
v 0.038388 0.333618 0.092676
v 0.000000 0.333618 0.100312
v -0.038388 0.333618 0.092676
v -0.070931 0.333618 0.070931
v -0.092676 0.333618 0.038388
v -0.100312 0.333618 -0.000000
v -0.092676 0.333618 -0.038388
v -0.070931 0.333618 -0.070931
v -0.038388 0.333618 -0.092676
v -0.092428 0.326857 -0.038285
v -0.100043 0.326857 0.000000
v 0.070741 0.326857 0.070741
v 0.092428 0.326857 0.038285
v -0.070741 0.326857 -0.070741
v 0.038285 0.326857 0.092428
v -0.038285 0.326857 -0.092428
v 0.000000 0.326857 0.100043
v 0.038285 0.326857 -0.092428
v 0.000000 0.326857 -0.100043
v -0.038285 0.326857 0.092428
v 0.070741 0.326857 -0.070741
v -0.070741 0.326857 0.070741
v 0.092428 0.326857 -0.038285
v -0.092428 0.326857 0.038285
v 0.100043 0.326857 0.000000
v -0.092428 0.284656 -0.038285
v 0.070741 0.284656 0.070741
v -0.070741 0.284656 -0.070741
v 0.038285 0.284656 0.092428
v -0.038285 0.284656 -0.092428
v 0.000000 0.284656 0.100043
v 0.038285 0.284656 -0.092428
v -0.038285 0.284656 0.092428
v 0.070741 0.284656 -0.070741
v -0.070741 0.284656 0.070741
v 0.092428 0.284656 -0.038285
v -0.092428 0.284656 0.038285
v 0.100043 0.284656 0.000000
v -0.100043 0.284656 0.000000
v 0.092428 0.284656 0.038285
v 0.000000 0.284656 -0.100043
v 0.000000 -0.001000 -0.100126
v 0.000000 0.012595 -0.114400
v 0.000000 0.002982 -0.110219
v 0.038317 -0.001000 -0.092505
v 0.043779 0.012595 -0.105692
v 0.042179 0.002982 -0.101829
v 0.070800 -0.001000 -0.070800
v 0.080893 0.012595 -0.080893
v 0.077937 0.002982 -0.077937
v 0.092505 -0.001000 -0.038317
v 0.105692 0.012595 -0.043779
v 0.101829 0.002982 -0.042179
v 0.100126 -0.001000 -0.000000
v 0.114400 0.012595 0.000000
v 0.110219 0.002982 -0.000000
v 0.092505 -0.001000 0.038317
v 0.105692 0.012595 0.043779
v 0.101829 0.002982 0.042179
v 0.070800 -0.001000 0.070800
v 0.080893 0.012595 0.080893
v 0.077937 0.002982 0.077937
v 0.038317 -0.001000 0.092505
v 0.043779 0.012595 0.105692
v 0.042179 0.002982 0.101829
v 0.000000 -0.001000 0.100126
v 0.000000 0.012595 0.114400
v 0.000000 0.002982 0.110219
v -0.038317 -0.001000 0.092505
v -0.043779 0.012595 0.105692
v -0.042179 0.002982 0.101829
v -0.070800 -0.001000 0.070800
v -0.080893 0.012595 0.080893
v -0.077937 0.002982 0.077937
v -0.092505 -0.001000 0.038317
v -0.105692 0.012595 0.043779
v -0.101829 0.002982 0.042179
v -0.100126 -0.001000 0.000000
v -0.114400 0.012595 0.000000
v -0.110219 0.002982 0.000000
v -0.092505 -0.001000 -0.038317
v -0.105692 0.012595 -0.043779
v -0.101829 0.002982 -0.042179
v -0.070800 -0.001000 -0.070800
v -0.080893 0.012595 -0.080893
v -0.077937 0.002982 -0.077937
v -0.038317 -0.001000 -0.092505
v -0.043779 0.012595 -0.105692
v -0.042179 0.002982 -0.101829
vn -0.3827 -0.0000 -0.9239
vn -0.0000 -0.1988 -0.9800
vn -0.3750 -0.1988 -0.9054
vn 0.7071 -0.0000 -0.7071
vn 0.9054 -0.1988 -0.3750
vn 0.6930 -0.1988 -0.6930
vn 0.9239 -0.0000 -0.3827
vn 0.9800 -0.1988 -0.0000
vn 1.0000 -0.0000 -0.0000
vn 0.9054 -0.1988 0.3750
vn 0.9239 -0.0000 0.3827
vn 0.6930 -0.1988 0.6930
vn 0.7071 -0.0000 0.7071
vn 0.3750 -0.1988 0.9054
vn 0.3827 -0.0000 0.9239
vn -0.0000 -0.1988 0.9800
vn -0.0000 -0.0000 1.0000
vn -0.3750 -0.1988 0.9054
vn -0.3827 -0.0000 0.9239
vn -0.6930 -0.1988 0.6930
vn -0.7071 -0.0000 0.7071
vn -0.9054 -0.1988 0.3750
vn -0.9239 -0.0000 0.3827
vn -0.9800 -0.1988 -0.0000
vn -1.0000 -0.0000 -0.0000
vn -0.9054 -0.1988 -0.3750
vn -0.9239 -0.0000 -0.3827
vn -0.6930 -0.1988 -0.6930
vn -0.7071 -0.0000 -0.7071
vn 0.3827 -0.0000 -0.9239
vn 0.3750 -0.1988 -0.9054
vn -0.0000 -0.0000 -1.0000
vn -0.0000 1.0000 -0.0000
vn -0.9998 -0.0199 -0.0000
vn -0.9232 -0.0397 -0.3824
vn -0.9237 -0.0199 -0.3826
vn 0.9237 -0.0199 0.3826
vn 0.7065 -0.0397 0.7065
vn 0.7070 -0.0199 0.7070
vn -0.7070 -0.0199 -0.7070
vn -0.7065 -0.0397 -0.7065
vn 0.3824 -0.0397 0.9231
vn 0.3826 -0.0199 0.9237
vn -0.3824 -0.0397 -0.9231
vn -0.3826 -0.0199 -0.9237
vn -0.0000 -0.0397 0.9992
vn -0.0000 -0.0199 0.9998
vn -0.0000 -0.0199 -0.9998
vn 0.3824 -0.0397 -0.9231
vn 0.3826 -0.0199 -0.9237
vn -0.0000 -0.0397 -0.9992
vn -0.3826 -0.0199 0.9237
vn -0.3824 -0.0397 0.9232
vn 0.7070 -0.0199 -0.7070
vn 0.7065 -0.0397 -0.7065
vn -0.7065 -0.0397 0.7065
vn -0.7070 -0.0199 0.7070
vn 0.9237 -0.0199 -0.3826
vn 0.9231 -0.0397 -0.3824
vn -0.9231 -0.0397 0.3824
vn -0.9237 -0.0199 0.3826
vn 0.9992 -0.0397 -0.0000
vn 0.9998 -0.0199 -0.0000
vn -0.9992 -0.0397 -0.0000
vn 0.9231 -0.0397 0.3824
vn 0.9781 0.2081 -0.0000
vn 0.9037 0.2081 0.3743
vn -0.9037 0.2081 0.3743
vn -0.9781 0.2081 -0.0000
vn 0.9037 0.2081 -0.3743
vn -0.6916 0.2081 0.6916
vn 0.6916 0.2081 -0.6916
vn -0.3743 0.2081 0.9037
vn 0.3743 0.2081 -0.9037
vn -0.0000 0.2081 0.9781
vn -0.3743 0.2081 -0.9037
vn -0.0000 0.2081 -0.9781
vn 0.3743 0.2081 0.9037
vn -0.6916 0.2081 -0.6916
vn 0.6916 0.2081 0.6916
vn -0.9037 0.2081 -0.3743
vn -0.9177 0.3974 -0.0000
vn -0.8478 0.3974 -0.3512
vn 0.8478 0.3974 0.3512
vn 0.6489 0.3974 0.6489
vn -0.6489 0.3974 -0.6489
vn 0.3512 0.3974 0.8478
vn -0.3512 0.3974 -0.8478
vn -0.0000 0.3974 0.9177
vn -0.0000 0.3974 -0.9177
vn 0.3512 0.3974 -0.8478
vn -0.3512 0.3974 0.8478
vn 0.6489 0.3974 -0.6489
vn -0.6489 0.3974 0.6489
vn 0.8478 0.3974 -0.3512
vn -0.8478 0.3974 0.3512
vn 0.9177 0.3974 -0.0000
vn 0.2747 -0.6961 -0.6633
vn -0.0000 -0.6961 -0.7179
vn -0.0000 -0.9779 -0.2091
vn 0.5077 -0.6961 -0.5077
vn 0.0800 -0.9779 -0.1932
vn 0.6633 -0.6961 -0.2747
vn 0.1479 -0.9779 -0.1479
vn 0.7179 -0.6961 -0.0000
vn 0.1932 -0.9779 -0.0800
vn 0.6633 -0.6961 0.2747
vn 0.2091 -0.9779 -0.0000
vn 0.1479 -0.9779 0.1479
vn 0.1932 -0.9779 0.0800
vn 0.5077 -0.6961 0.5077
vn 0.0800 -0.9779 0.1932
vn 0.2747 -0.6961 0.6633
vn -0.0000 -0.6961 0.7179
vn -0.0800 -0.9779 0.1932
vn -0.0000 -0.9779 0.2091
vn -0.2747 -0.6961 0.6633
vn -0.1479 -0.9779 0.1479
vn -0.6633 -0.6961 0.2747
vn -0.5077 -0.6961 0.5077
vn -0.1932 -0.9779 0.0800
vn -0.7179 -0.6961 -0.0000
vn -0.2091 -0.9779 -0.0000
vn -0.6633 -0.6961 -0.2747
vn -0.5077 -0.6961 -0.5077
vn -0.1932 -0.9779 -0.0800
vn -0.2747 -0.6961 -0.6633
vn -0.1479 -0.9779 -0.1479
vn -0.0800 -0.9779 -0.1932
vt 0.138623 0.827534
vt 0.307091 0.413767
vt 0.066569 0.827534
vt 0.307091 0.413767
vt 0.307091 0.413097
vt 0.000000 0.827299
vt 0.307091 0.413767
vt 0.256141 0.413532
vt 0.307091 0.413767
vt 0.189572 0.413767
vt 0.307091 0.413767
vt 0.117519 0.413767
vt 0.307091 0.413767
vt 0.050950 0.413532
vt 0.307091 0.413767
vt 0.000000 0.413097
vt 0.614182 0.349236
vt 0.307091 0.413767
vt 0.680751 0.349001
vt 0.307091 0.413767
vt 0.752805 0.349001
vt 0.307091 0.413767
vt 0.819374 0.349236
vt 0.563232 0.762098
vt 0.307091 0.413767
vt 0.512283 0.762533
vt 0.307091 0.413767
vt 0.445714 0.762768
vt 0.307091 0.413767
vt 0.373660 0.762768
vt 0.307091 0.413767
vt 0.307091 0.762532
vt 0.256141 0.826864
vt 0.307091 0.413767
vt 0.205192 0.827299
vt 0.307091 0.413767
vt 0.307091 0.413767
vt 0.443860 0.829337
vt 0.307091 0.413767
vt 0.443860 0.901390
vt 0.443625 0.967959
vt 0.307091 0.413767
vt 0.819374 0.349001
vt 0.307091 0.413767
vt 0.819808 0.399951
vt 0.307091 0.413767
vt 0.820043 0.466519
vt 0.307091 0.413767
vt 0.820043 0.538573
vt 0.307091 0.413767
vt 0.819808 0.605142
vt 0.819374 0.656092
vt 0.307091 0.413767
vt 0.307091 0.794808
vt 0.307091 0.413767
vt 0.307326 0.861377
vt 0.307091 0.413767
vt 0.307326 0.933431
vt 0.307091 0.413767
vt 0.307091 1.000000
vt 0.819374 0.656092
vt 0.307091 0.413767
vt 0.819808 0.707041
vt 0.307091 0.413767
vt 0.820043 0.773610
vt 0.307091 0.413767
vt 0.820043 0.845664
vt 0.307091 0.413767
vt 0.819808 0.912233
vt 0.819374 0.963183
vt 0.307091 0.413767
vt 0.443625 0.762768
vt 0.580158 0.833773
vt 0.656092 0.190405
vt 0.580158 0.896954
vt 0.680270 0.248776
vt 0.579952 0.955325
vt 0.955755 0.367910
vt 0.724945 0.293451
vt 0.956136 0.412585
vt 0.783316 0.317629
vt 0.956342 0.470956
vt 0.846497 0.317629
vt 0.956342 0.534137
vt 0.904868 0.293451
vt 0.956136 0.592508
vt 0.443038 0.762768
vt 0.949543 0.248776
vt 0.443419 0.807443
vt 0.973721 0.190405
vt 0.443625 0.865814
vt 0.973721 0.127224
vt 0.443625 0.928994
vt 0.949543 0.068853
vt 0.443419 0.987365
vt 0.955755 0.675001
vt 0.904868 0.024178
vt 0.956136 0.719676
vt 0.846496 0.000000
vt 0.956342 0.778047
vt 0.783316 0.000000
vt 0.956342 0.841227
vt 0.724945 0.024178
vt 0.956136 0.899599
vt 0.680270 0.068853
vt 0.955755 0.944274
vt 0.579952 0.775402
vt 0.656092 0.127224
vt 0.945101 0.841143
vt 0.945101 0.778132
vt 0.431798 0.763129
vt 0.944896 0.592266
vt 0.945101 0.534052
vt 0.944895 0.899357
vt 0.432178 0.807684
vt 0.944515 0.636822
vt 0.568712 0.775643
vt 0.944515 0.943913
vt 0.432384 0.865899
vt 0.568918 0.896869
vt 0.568918 0.833858
vt 0.432384 0.928910
vt 0.944515 0.368271
vt 0.568712 0.955083
vt 0.944515 0.675362
vt 0.432178 0.987124
vt 0.944896 0.412826
vt 0.568332 0.999639
vt 0.944895 0.719917
vt 0.945101 0.471041
vt 0.874958 0.841143
vt 0.874752 0.592266
vt 0.874752 0.899357
vt 0.874372 0.636822
vt 0.362035 0.807684
vt 0.874372 0.943913
vt 0.498569 0.775643
vt 0.362241 0.865899
vt 0.498775 0.896869
vt 0.362241 0.928910
vt 0.498569 0.955083
vt 0.874372 0.368271
vt 0.362035 0.987124
vt 0.874372 0.675362
vt 0.498189 0.999639
vt 0.874752 0.412826
vt 0.874752 0.719917
vt 0.874958 0.471041
vt 0.874958 0.778132
vt 0.874958 0.534052
vt 0.498775 0.833858
vt 0.450060 0.333022
vt 0.138623 0.430447
vt 0.137306 0.414412
vt 0.446881 0.349001
vt 0.391796 0.308888
vt 0.066569 0.430447
vt 0.067886 0.414412
vt 0.382745 0.322435
vt 0.347204 0.264295
vt 0.000000 0.430212
vt 0.307091 0.016011
vt 0.301480 0.000000
vt 0.003749 0.414186
vt 0.333657 0.273347
vt 0.323070 0.206032
vt 0.256141 0.016445
vt 0.252392 0.000419
vt 0.307091 0.209211
vt 0.323070 0.142969
vt 0.189572 0.016680
vt 0.307091 0.139790
vt 0.188256 0.000645
vt 0.347204 0.084705
vt 0.117519 0.016680
vt 0.118835 0.000645
vt 0.333657 0.075654
vt 0.391796 0.040113
vt 0.563232 0.746757
vt 0.050950 0.016445
vt 0.054699 0.000419
vt 0.568843 0.762768
vt 0.382745 0.026566
vt 0.450060 0.015979
vt 0.000000 0.016011
vt 0.614182 0.746323
vt 0.446881 0.000000
vt 0.617931 0.762349
vt 0.513123 0.015979
vt 0.680751 0.746087
vt 0.682068 0.762123
vt 0.516302 0.000000
vt 0.571386 0.040113
vt 0.752805 0.746087
vt 0.751488 0.762123
vt 0.580438 0.026566
vt 0.615979 0.084705
vt 0.819374 0.746323
vt 0.563232 0.365012
vt 0.557621 0.349001
vt 0.815624 0.762349
vt 0.629526 0.075654
vt 0.640113 0.142969
vt 0.512283 0.365446
vt 0.508533 0.349420
vt 0.656092 0.139790
vt 0.640113 0.206032
vt 0.445714 0.365681
vt 0.656092 0.209211
vt 0.444397 0.349646
vt 0.615979 0.264296
vt 0.373660 0.365681
vt 0.629526 0.273347
vt 0.374977 0.349646
vt 0.571386 0.308888
vt 0.307091 0.365446
vt 0.256141 0.429778
vt 0.250530 0.413767
vt 0.310840 0.349419
vt 0.580438 0.322435
vt 0.513123 0.333022
vt 0.205192 0.430212
vt 0.201442 0.414186
vt 0.516302 0.349001
s 1
usemtl Material
f 16/35/1 82/153/2 127/222/3
f 3/5/4 91/167/5 88/162/6
f 4/8/7 94/171/8 91/167/5
f 5/10/9 97/175/10 94/171/8
f 6/12/11 100/180/12 97/175/10
f 7/14/13 103/185/14 100/180/12
f 8/17/15 106/190/16 103/186/14
f 9/19/17 109/194/18 106/190/16
f 10/21/19 112/198/20 109/194/18
f 11/24/21 115/204/22 112/199/20
f 12/26/23 118/208/24 115/204/22
f 13/28/25 121/212/26 118/208/24
f 14/30/27 124/216/28 121/212/26
f 15/33/29 127/222/3 124/217/28
f 2/3/30 88/161/6 85/157/31
f 1/1/32 85/157/31 82/153/2
f 4/9/33 19/42/33 20/44/33
f 9/20/33 24/53/33 25/55/33
f 2/4/33 17/37/33 18/39/33
f 14/31/33 29/64/33 30/66/33
f 7/15/33 22/48/33 23/50/33
f 12/27/33 27/59/33 28/62/33
f 1/2/33 32/71/33 17/37/33
f 5/11/33 20/44/33 21/46/33
f 10/22/33 25/55/33 26/57/33
f 15/34/33 30/66/33 31/68/33
f 3/7/33 18/39/33 19/42/33
f 8/18/33 23/50/33 24/53/33
f 13/29/33 28/62/33 29/64/33
f 6/13/33 21/46/33 22/48/33
f 11/25/33 26/57/33 27/59/33
f 16/36/33 31/68/33 32/71/33
f 50/110/34 46/102/35 49/109/36
f 52/113/37 39/86/38 51/112/39
f 53/114/40 46/102/35 47/104/41
f 51/111/39 40/89/42 54/115/43
f 53/114/40 48/106/44 55/118/45
f 54/115/43 41/91/46 56/119/47
f 58/121/48 34/75/49 57/120/50
f 55/117/45 33/73/51 58/121/48
f 59/122/52 41/91/46 42/93/53
f 60/124/54 34/75/49 35/77/55
f 59/122/52 43/95/56 61/126/57
f 62/127/58 35/78/55 36/80/59
f 61/125/57 44/98/60 63/129/61
f 62/127/58 37/82/62 64/130/63
f 63/129/61 45/100/64 50/110/34
f 52/113/37 37/82/62 38/84/65
f 77/148/66 52/113/37 79/150/67
f 76/147/68 50/110/34 78/149/69
f 75/146/70 64/130/63 77/148/66
f 74/144/71 63/129/61 76/147/68
f 73/141/72 62/128/58 75/145/70
f 72/140/73 61/126/57 74/143/71
f 71/139/74 60/124/54 73/141/72
f 70/138/75 59/122/52 72/140/73
f 69/137/76 58/121/48 80/151/77
f 80/151/77 57/120/50 71/139/74
f 68/135/78 56/119/47 70/138/75
f 67/133/79 55/118/45 69/136/76
f 66/132/80 54/116/43 68/134/78
f 65/131/81 53/114/40 67/133/79
f 79/150/67 51/112/39 66/132/80
f 78/149/69 49/109/36 65/131/81
f 29/65/82 65/131/81 30/67/83
f 22/49/84 66/132/80 23/51/85
f 30/67/83 67/133/79 31/69/86
f 23/51/85 68/134/78 24/52/87
f 31/69/86 69/136/76 32/70/88
f 24/54/87 70/138/75 25/56/89
f 17/38/90 71/139/74 18/40/91
f 32/72/88 80/151/77 17/38/90
f 26/58/92 70/138/75 72/140/73
f 18/40/91 73/141/72 19/41/93
f 27/60/94 72/140/73 74/143/71
f 19/43/93 75/146/70 20/45/95
f 27/61/94 76/147/68 28/63/96
f 21/47/97 75/146/70 77/148/66
f 29/65/82 76/147/68 78/149/69
f 21/47/97 79/150/67 22/49/84
f 82/153/2 86/158/98 83/154/99
f 86/159/98 81/152/100 83/155/99
f 85/157/31 89/164/101 86/158/98
f 89/165/101 84/156/102 86/159/98
f 88/162/6 92/168/103 89/163/101
f 92/169/103 87/160/104 89/165/101
f 91/167/5 95/173/105 92/168/103
f 95/172/105 90/166/106 92/169/103
f 97/175/10 95/173/105 94/171/8
f 98/177/107 93/170/108 95/172/105
f 100/180/12 98/176/107 97/175/10
f 98/177/107 99/178/109 96/174/110
f 103/186/14 101/182/111 100/179/12
f 101/183/111 102/184/112 99/178/109
f 106/190/16 104/188/113 103/186/14
f 107/192/114 102/184/112 104/187/113
f 109/194/18 107/191/114 106/190/16
f 107/192/114 108/193/115 105/189/116
f 112/198/20 110/195/117 109/194/18
f 110/196/117 111/197/118 108/193/115
f 112/199/20 116/205/119 113/200/120
f 113/202/120 114/203/121 111/197/118
f 115/204/22 119/210/122 116/205/119
f 116/206/119 117/207/123 114/203/121
f 121/212/26 119/210/122 118/208/24
f 122/213/124 117/207/123 119/209/122
f 124/216/28 122/214/124 121/212/26
f 125/220/125 120/211/126 122/213/124
f 124/217/28 128/223/127 125/218/125
f 128/224/127 123/215/128 125/220/125
f 127/222/3 83/154/99 128/223/127
f 83/155/99 126/221/129 128/224/127
f 102/184/112 114/203/121 126/221/129
f 43/97/33 39/88/33 35/79/33
f 16/35/1 1/1/32 82/153/2
f 3/5/4 4/8/7 91/167/5
f 4/8/7 5/10/9 94/171/8
f 5/10/9 6/12/11 97/175/10
f 6/12/11 7/14/13 100/180/12
f 7/14/13 8/16/15 103/185/14
f 8/17/15 9/19/17 106/190/16
f 9/19/17 10/21/19 109/194/18
f 10/21/19 11/23/21 112/198/20
f 11/24/21 12/26/23 115/204/22
f 12/26/23 13/28/25 118/208/24
f 13/28/25 14/30/27 121/212/26
f 14/30/27 15/32/29 124/216/28
f 15/33/29 16/35/1 127/222/3
f 2/3/30 3/6/4 88/161/6
f 1/1/32 2/3/30 85/157/31
f 4/9/33 3/7/33 19/42/33
f 9/20/33 8/18/33 24/53/33
f 2/4/33 1/2/33 17/37/33
f 14/31/33 13/29/33 29/64/33
f 7/15/33 6/13/33 22/48/33
f 12/27/33 11/25/33 27/59/33
f 1/2/33 16/36/33 32/71/33
f 5/11/33 4/9/33 20/44/33
f 10/22/33 9/20/33 25/55/33
f 15/34/33 14/31/33 30/66/33
f 3/7/33 2/4/33 18/39/33
f 8/18/33 7/15/33 23/50/33
f 13/29/33 12/27/33 28/62/33
f 6/13/33 5/11/33 21/46/33
f 11/25/33 10/22/33 26/57/33
f 16/36/33 15/34/33 31/68/33
f 50/110/34 45/100/64 46/102/35
f 52/113/37 38/84/65 39/86/38
f 53/114/40 49/109/36 46/102/35
f 51/111/39 39/87/38 40/89/42
f 53/114/40 47/104/41 48/106/44
f 54/115/43 40/89/42 41/91/46
f 58/121/48 33/73/51 34/75/49
f 55/117/45 48/107/44 33/73/51
f 59/122/52 56/119/47 41/91/46
f 60/124/54 57/120/50 34/75/49
f 59/122/52 42/93/53 43/95/56
f 62/127/58 60/123/54 35/78/55
f 61/125/57 43/96/56 44/98/60
f 62/127/58 36/80/59 37/82/62
f 63/129/61 44/98/60 45/100/64
f 52/113/37 64/130/63 37/82/62
f 77/148/66 64/130/63 52/113/37
f 76/147/68 63/129/61 50/110/34
f 75/146/70 62/127/58 64/130/63
f 74/144/71 61/125/57 63/129/61
f 73/141/72 60/124/54 62/128/58
f 72/140/73 59/122/52 61/126/57
f 71/139/74 57/120/50 60/124/54
f 70/138/75 56/119/47 59/122/52
f 69/137/76 55/117/45 58/121/48
f 80/151/77 58/121/48 57/120/50
f 68/135/78 54/115/43 56/119/47
f 67/133/79 53/114/40 55/118/45
f 66/132/80 51/112/39 54/116/43
f 65/131/81 49/109/36 53/114/40
f 79/150/67 52/113/37 51/112/39
f 78/149/69 50/110/34 49/109/36
f 29/65/82 78/149/69 65/131/81
f 22/49/84 79/150/67 66/132/80
f 30/67/83 65/131/81 67/133/79
f 23/51/85 66/132/80 68/134/78
f 31/69/86 67/133/79 69/136/76
f 24/54/87 68/135/78 70/138/75
f 17/38/90 80/151/77 71/139/74
f 32/72/88 69/137/76 80/151/77
f 26/58/92 25/56/89 70/138/75
f 18/40/91 71/139/74 73/141/72
f 27/60/94 26/58/92 72/140/73
f 19/43/93 73/142/72 75/146/70
f 27/61/94 74/144/71 76/147/68
f 21/47/97 20/45/95 75/146/70
f 29/65/82 28/63/96 76/147/68
f 21/47/97 77/148/66 79/150/67
f 82/153/2 85/157/31 86/158/98
f 86/159/98 84/156/102 81/152/100
f 85/157/31 88/161/6 89/164/101
f 89/165/101 87/160/104 84/156/102
f 88/162/6 91/167/5 92/168/103
f 92/169/103 90/166/106 87/160/104
f 91/167/5 94/171/8 95/173/105
f 95/172/105 93/170/108 90/166/106
f 97/175/10 98/176/107 95/173/105
f 98/177/107 96/174/110 93/170/108
f 100/180/12 101/181/111 98/176/107
f 98/177/107 101/183/111 99/178/109
f 103/186/14 104/188/113 101/182/111
f 101/183/111 104/187/113 102/184/112
f 106/190/16 107/191/114 104/188/113
f 107/192/114 105/189/116 102/184/112
f 109/194/18 110/195/117 107/191/114
f 107/192/114 110/196/117 108/193/115
f 112/198/20 113/201/120 110/195/117
f 110/196/117 113/202/120 111/197/118
f 112/199/20 115/204/22 116/205/119
f 113/202/120 116/206/119 114/203/121
f 115/204/22 118/208/24 119/210/122
f 116/206/119 119/209/122 117/207/123
f 121/212/26 122/214/124 119/210/122
f 122/213/124 120/211/126 117/207/123
f 124/216/28 125/219/125 122/214/124
f 125/220/125 123/215/128 120/211/126
f 124/217/28 127/222/3 128/223/127
f 128/224/127 126/221/129 123/215/128
f 127/222/3 82/153/2 83/154/99
f 83/155/99 81/152/100 126/221/129
f 126/221/129 81/152/100 84/156/102
f 84/156/102 87/160/104 90/166/106
f 90/166/106 93/170/108 96/174/110
f 96/174/110 99/178/109 102/184/112
f 102/184/112 105/189/116 108/193/115
f 108/193/115 111/197/118 114/203/121
f 114/203/121 117/207/123 120/211/126
f 120/211/126 123/215/128 126/221/129
f 126/221/129 84/156/102 90/166/106
f 90/166/106 96/174/110 102/184/112
f 102/184/112 108/193/115 114/203/121
f 114/203/121 120/211/126 126/221/129
f 126/221/129 90/166/106 102/184/112
f 35/79/33 34/76/33 33/74/33
f 33/74/33 48/108/33 47/105/33
f 47/105/33 46/103/33 45/101/33
f 45/101/33 44/99/33 43/97/33
f 43/97/33 42/94/33 41/92/33
f 41/92/33 40/90/33 39/88/33
f 39/88/33 38/85/33 37/83/33
f 37/83/33 36/81/33 35/79/33
f 35/79/33 33/74/33 47/105/33
f 47/105/33 45/101/33 43/97/33
f 43/97/33 41/92/33 39/88/33
f 39/88/33 37/83/33 35/79/33
f 35/79/33 47/105/33 43/97/33
